<svg xmlns="http://www.w3.org/2000/svg" viewBox="0 0 144.16 217.59"><defs><style>.cls-1{fill:#282828;}</style></defs><title>Asset 8</title><g id="Layer_2" data-name="Layer 2"><g id="Layer_1-2" data-name="Layer 1"><polygon class="cls-1" points="48.94 72.19 23.66 72.19 23.66 42.49 0 42.49 0 95.86 48.94 95.86 48.94 72.19"/><path class="cls-1" d="M81.44,128.31c1.07-.8,2-1.58,2.91-2.34,14.19-12.26,21.39-29.59,21.39-51.51S98.58,35,84.48,22.05C60.25-.16,23-.36,12.18.1L.85.58V26l12.35-.54c6-.26,36.64-.73,54.11,15.3,8.64,7.92,13,19.25,13,33.67s-4.12,25-12.59,32.29c-17.72,15.31-50.95,12.35-54.68,12L0,117.35V217.59H23.67v-73h.65a113.76,113.76,0,0,0,35.92-5.33l55,78.3h28.92Z"/></g></g></svg>